<svg xmlns="http://www.w3.org/2000/svg" width="232.249" height="201.976" viewBox="0 0 232.249 201.976">
  <g id="confirm_email_icon" transform="translate(-62 -67)">
    <circle id="Эллипс_56" data-name="Эллипс 56" cx="73" cy="73" r="73" transform="translate(62 67)" fill="#fff"/>
    <path id="Контур_878" data-name="Контур 878" d="M145,239.163c-4.15-5.822-17.609-12.712-38.241,6.308S73.656,260.835,70,256.63" fill="none" stroke="#cfffb9" stroke-width="2"/>
    <path id="Контур_879" data-name="Контур 879" d="M145,213.391c-4.15-6.037-17.609-13.182-38.241,6.541S73.656,235.866,70,231.505" fill="none" stroke="#cfffb9" stroke-width="2"/>
    <path id="Контур_880" data-name="Контур 880" d="M145,185.391c-4.15-6.037-17.609-13.182-38.241,6.541S73.656,207.866,70,203.505" fill="none" stroke="#cfffb9" stroke-width="2"/>
    <path id="Контур_881" data-name="Контур 881" d="M145,158.391c-4.15-6.037-17.609-13.182-38.241,6.541S73.656,180.866,70,176.505" fill="none" stroke="#cfffb9" stroke-width="2"/>
    <rect id="Прямоугольник_157" data-name="Прямоугольник 157" width="139" height="93" rx="4" transform="matrix(0.966, -0.259, 0.259, 0.966, 107.518, 159.118)" fill="#caffb1"/>
    <path id="Контур_882" data-name="Контур 882" d="M134.831,248.028a4,4,0,0,1-4.279-2.943l-21.624-80.7,133.634-35.807L135.292,247.9Z" fill="#2c623b" fill-rule="evenodd"/>
    <rect id="Прямоугольник_158" data-name="Прямоугольник 158" width="24" height="24" rx="2" transform="matrix(0.966, -0.259, 0.259, 0.966, 224.181, 189.407)" fill="#f7fff3"/>
    <rect id="Прямоугольник_159" data-name="Прямоугольник 159" width="14.747" height="14.747" rx="2" transform="matrix(0.966, -0.259, 0.259, 0.966, 229.668, 192.484)" fill="#0c364e"/>
    <path id="Контур_883" data-name="Контур 883" d="M185.146,188.647a4,4,0,0,0,4.171-1.117L241.1,130.693a4,4,0,0,0-3.992-6.557l-125.04,33.5a4,4,0,0,0-.179,7.675Z" fill="#6fe139"/>
    <path id="Контур_884" data-name="Контур 884" d="M264.86,201.374c12.529-12.529,27.483-5.861,27.483-5.861s6.667,14.954-5.861,27.483c-8.18,8.18-25.671,4.049-25.671,4.049S256.68,209.554,264.86,201.374Z" fill="#6fe139"/>
    <path id="Контур_885" data-name="Контур 885" d="M294.249,194.015,270.915,217.35l-.707-.707,23.334-23.335Z" fill="#2b7807" fill-rule="evenodd"/>
    <path id="Контур_886" data-name="Контур 886" d="M216.282,246.555a20.011,20.011,0,0,1,22.082,1.143,20.011,20.011,0,0,1-10.052,19.694c-7.883,4.551-20.335-2.15-20.335-2.15S208.4,251.106,216.282,246.555Z" fill="#6fe139"/>
    <path id="Контур_887" data-name="Контур 887" d="M240.118,246.947,217.63,259.931l-.393-.682,22.488-12.983Z" fill="#2b7807" fill-rule="evenodd"/>
    <path id="Контур_888" data-name="Контур 888" d="M122.321,115.223a20.011,20.011,0,0,1,22.082,1.143,20.013,20.013,0,0,1-10.052,19.7c-7.883,4.551-20.336-2.151-20.336-2.151S114.438,119.775,122.321,115.223Z" fill="#6fe139"/>
    <path id="Контур_889" data-name="Контур 889" d="M146.157,115.615,123.669,128.6l-.393-.682,22.487-12.983Z" fill="#2b7807" fill-rule="evenodd"/>
    <path id="Контур_890" data-name="Контур 890" d="M258.914,140.4a13.279,13.279,0,0,1,14.652.758,13.279,13.279,0,0,1-6.669,13.068c-5.231,3.019-13.493-1.427-13.493-1.427S253.684,143.42,258.914,140.4Z" fill="#6fe139"/>
    <path id="Контур_891" data-name="Контур 891" d="M274.73,140.66l-14.921,8.615-.261-.452,14.921-8.615Z" fill="#2b7807" fill-rule="evenodd"/>
  </g>
</svg>
