<svg xmlns="http://www.w3.org/2000/svg" width="318.5" height="229" viewBox="0 0 318.5 229">
  <g id="forgot_icon" transform="translate(-34 -105)">
    <circle id="Эллипс_55" data-name="Эллипс 55" cx="56.5" cy="56.5" r="56.5" transform="translate(129 221)" fill="#fff"/>
    <rect id="Прямоугольник_148" data-name="Прямоугольник 148" width="139" height="93" rx="4" transform="translate(118.151 178.25)" fill="#e1ffd3"/>
    <path id="Контур_743" data-name="Контур 743" d="M121.523,271.2a4,4,0,0,1-3.372-3.951V183.7H256.5L122,271.2Z" fill="#cfffb9" fill-rule="evenodd"/>
    <rect id="Прямоугольник_149" data-name="Прямоугольник 149" width="24" height="24" rx="2" transform="translate(223 237.701)" fill="#f7fff3"/>
    <rect id="Прямоугольник_150" data-name="Прямоугольник 150" width="14.747" height="14.747" rx="2" transform="translate(227.503 242.094)" fill="#0c364e"/>
    <path id="Контур_744" data-name="Контур 744" d="M189.81,135.633a4,4,0,0,0-4.318,0l-64.725,41.5a5.673,5.673,0,0,0,0,8.236l64.725,41.5a4,4,0,0,0,4.318,0l64.726-41.5a5.673,5.673,0,0,0,0-8.236Z" fill="#92ea68" fill-rule="evenodd"/>
    <path id="Контур_745" data-name="Контур 745" d="M276.026,248.274C291.034,228.491,333.5,231.6,352.5,281.531H198C205.248,259.147,257.265,273,276.026,248.274Z" fill="#50c43d"/>
    <path id="Контур_746" data-name="Контур 746" d="M285.2,248.349c11.976-19.865,60.3,0,67.3,33.395H222.943C228.726,259.267,270.233,273.181,285.2,248.349Z" fill="#3fad2d"/>
    <path id="Контур_747" data-name="Контур 747" d="M104,244.1c-5.605-24.191-51-12.326-70,37.607H178.5C166.5,223.1,113.5,285.1,104,244.1Z" fill="#50c43d"/>
    <path id="Контур_748" data-name="Контур 748" d="M90.711,248.958c-8.134-19.715-49.456,0-54.211,33.14H133C129.071,259.792,100.879,273.6,90.711,248.958Z" fill="#3fad2d"/>
    <path id="Контур_749" data-name="Контур 749" d="M143,105a3,3,0,0,0-3,3v89.7l45.492,29.167a4,4,0,0,0,4.318,0L232,199.816V108a3,3,0,0,0-3-3Z" fill="#fff" fill-rule="evenodd"/>
    <path id="Контур_750" data-name="Контур 750" d="M143,105a3,3,0,0,0-3,3v89.7l45.492,29.167a4,4,0,0,0,4.318,0L232,199.816V108a3,3,0,0,0-3-3Z" fill="#fff" fill-rule="evenodd"/>
    <line id="Линия_16" data-name="Линия 16" x2="74" transform="translate(149 118.5)" fill="none" stroke="#e1ffd3" stroke-width="1"/>
    <line id="Линия_17" data-name="Линия 17" x2="74" transform="translate(149 128.5)" fill="none" stroke="#e1ffd3" stroke-width="1"/>
    <line id="Линия_18" data-name="Линия 18" x2="74" transform="translate(149 138.5)" fill="none" stroke="#e1ffd3" stroke-width="1"/>
    <line id="Линия_19" data-name="Линия 19" x2="74" transform="translate(149 148.5)" fill="none" stroke="#e1ffd3" stroke-width="1"/>
    <path id="Контур_751" data-name="Контур 751" d="M182,184h12a8,8,0,0,1,8,8v8H174v-8A8,8,0,0,1,182,184Z" fill="none" stroke="#3383b0" stroke-width="4"/>
    <path id="Контур_752" data-name="Контур 752" d="M212,212.639V201a3,3,0,0,0-3-3H167a3,3,0,0,0-3,3v12.086l21.492,13.78a4,4,0,0,0,4.318,0Z" fill="#0c364e" fill-rule="evenodd"/>
    <path id="Контур_753" data-name="Контур 753" d="M189.333,215.333A1.333,1.333,0,0,0,188,214h0a1.333,1.333,0,0,0-1.333,1.333v1.777a.953.953,0,0,1-.1.423h0a5.366,5.366,0,0,0-.567,2.4v.64A1.425,1.425,0,0,0,187.426,222h1.148A1.425,1.425,0,0,0,190,220.574v-.64a5.366,5.366,0,0,0-.567-2.4h0a.953.953,0,0,1-.1-.423Z" fill="#fff" fill-rule="evenodd"/>
    <path id="Контур_754" data-name="Контур 754" d="M209.673,214.131,187.5,223,164,213l2.167,1.476,19.325,12.39a4,4,0,0,0,4.318,0Z" fill="#062334" fill-rule="evenodd"/>
  </g>
</svg>
