<svg xmlns="http://www.w3.org/2000/svg" width="330.502" height="231" viewBox="0 0 330.502 231">
  <g id="onboarding_1" transform="translate(6874 -922)">
    <path id="Контур_892" data-name="Контур 892" d="M82.437,334.371c0,2.556-12.953,4.629-28.932,4.629s-28.932-2.073-28.932-4.629,12.953-4.629,28.932-4.629S82.437,331.814,82.437,334.371Z" transform="translate(-6887 810)" fill="#dfeed8"/>
    <path id="Контур_893" data-name="Контур 893" d="M78.982,271.106c-6.789,1.543-10.03,9.13-10.8,12.73,5.143.515,16.279.077,19.674-5.786s15.431-3.858,23.146-4.629c-.129-1.415-1.852-3.241-7.715-6.944C95.955,261.848,87.469,269.177,78.982,271.106Z" transform="translate(-6887 810)" fill="#92ea68"/>
    <path id="Контур_894" data-name="Контур 894" d="M62.231,292.479c-.049.28,0,.408.047.458l-.273.273a.884.884,0,0,1-.154-.8,4.611,4.611,0,0,1,.42-1.159,19.755,19.755,0,0,1,2.236-3.359,50.359,50.359,0,0,1,9.364-8.853c8.14-5.991,19.737-11.033,32.543-8.123l-.086.376c-12.654-2.876-24.137,2.1-32.228,8.058a49.963,49.963,0,0,0-9.29,8.782,19.419,19.419,0,0,0-2.192,3.289A4.241,4.241,0,0,0,62.231,292.479Z" transform="translate(-6887 810)" fill="#5f3b06" fill-rule="evenodd"/>
    <path id="Контур_895" data-name="Контур 895" d="M43.106,236.774c-7.407-6.79-18.259-3.858-22.76-1.543,0,13.5,21.6,20.059,22.76,27,.926,5.555,11.187,15.173,16.2,19.288.771-.772,2.16-4.166,1.543-11.573-.771-9.258-2.314-11.187-6.172-14.659S52.364,245.26,43.106,236.774Z" transform="translate(-6887 810)" fill="#92ea68"/>
    <path id="Контур_896" data-name="Контур 896" d="M60.364,286.725a95.04,95.04,0,0,0,5.715,16.1l.345-.173a94.7,94.7,0,0,1-5.689-16.033q-.438-1.539-.877-3.107c-1.387-4.935-2.819-10.03-4.613-14.941C50.9,256.67,44.41,245.8,31.216,240.836l-.136.362c13.037,4.908,19.471,15.644,23.8,27.506,1.788,4.895,3.215,9.974,4.6,14.908Q59.926,285.18,60.364,286.725Z" transform="translate(-6887 810)" fill="#5f3b06" fill-rule="evenodd"/>
    <path id="Контур_897" data-name="Контур 897" d="M36.548,292.709h50.92L81.811,333.6h-39.6Z" transform="translate(-6887 810)" fill="#e1ae62"/>
    <path id="Контур_898" data-name="Контур 898" d="M82.051,334.757c-28.735-3.563-41.624-13.116-36.261-42.82H36.146l6.172,42.82Z" transform="translate(-6887 810)" fill="#784c0a"/>
    <path id="Контур_899" data-name="Контур 899" d="M31.919,274.578c10.493-3.086,17.231,4.886,19.288,9.258,0,1.8-1.62,4.938-8.1,3.086-8.1-2.314-29.7,4.63-30.089-3.086S18.8,278.436,31.919,274.578Z" transform="translate(-6887 810)" fill="#92ea68"/>
    <path id="Контур_900" data-name="Контур 900" d="M24.159,280.581c19.532-4.651,33.465,5.553,38,11.254l-.3.24c-4.466-5.614-18.256-15.727-37.609-11.119Z" transform="translate(-6887 810)" fill="#5f3b06" fill-rule="evenodd"/>
    <path id="Контур_901" data-name="Контур 901" d="M41.949,332.828H82.068v1.543H41.949Z" transform="translate(-6887 810)" fill="#b9802b"/>
    <path id="Контур_902" data-name="Контур 902" d="M35.005,291.166H89.012v1.543H35.005Z" transform="translate(-6887 810)" fill="#b9802b"/>
    <path id="Контур_903" data-name="Контур 903" d="M69.41,246.046c-12.653,10.8-7.844,26.875-3.858,33.561,3.729-3.986,11.881-14.5,14.659-24.689,3.472-12.73,35.1-25.845,22.374-31.246S85.227,232.544,69.41,246.046Z" transform="translate(-6887 810)" fill="#92ea68"/>
    <path id="Контур_904" data-name="Контур 904" d="M63.652,287.077a16.742,16.742,0,0,1-1.476,4.184l-.335-.191a16.388,16.388,0,0,0,1.437-4.084c.418-1.711.8-3.735,1.224-6l0-.014a125.371,125.371,0,0,1,3.734-15.759c3.723-11.556,10.788-24.333,26.465-33.236l.191.335c-15.569,8.842-22.585,21.525-26.288,33.019a125.033,125.033,0,0,0-3.724,15.719v.007C64.456,283.319,64.073,285.354,63.652,287.077Z" transform="translate(-6887 810)" fill="#5f3b06" fill-rule="evenodd"/>
    <path id="Контур_905" data-name="Контур 905" d="M194,337c0,3.314-16.789,6-37.5,6s-37.5-2.686-37.5-6,16.789-6,37.5-6S194,333.686,194,337Z" transform="translate(-6887 810)" fill="#dfeed8"/>
    <path id="Контур_906" data-name="Контур 906" d="M183.007,187.015c0,17.718-15.288,23.578-15.288,23.578s-15.289-5.86-15.289-23.578c0-11.568,15.289-21.015,15.289-21.015S183.007,175.447,183.007,187.015Z" transform="translate(-6887 810)" fill="#6fe139"/>
    <path id="Контур_907" data-name="Контур 907" d="M217.178,207.682c-13.009,7.511-23.83-1.3-23.83-1.3s-2.216-13.774,10.793-21.285c8.494-4.9,21.949,2.382,21.949,2.382S225.672,202.778,217.178,207.682Z" transform="translate(-6887 810)" fill="#6fe139"/>
    <path id="Контур_908" data-name="Контур 908" d="M116.9,207.682c13.009,7.511,23.83-1.3,23.83-1.3s2.216-13.774-10.793-21.285c-8.494-4.9-21.949,2.382-21.949,2.382S108.4,202.778,116.9,207.682Z" transform="translate(-6887 810)" fill="#6fe139"/>
    <path id="Контур_909" data-name="Контур 909" d="M225.628,236.567c-14.511,3.888-22.683-7.419-22.683-7.419s1.424-13.878,15.934-17.766c9.473-2.539,20.584,7.981,20.584,7.981S235.1,234.029,225.628,236.567Z" transform="translate(-6887 810)" fill="#6fe139"/>
    <path id="Контур_910" data-name="Контур 910" d="M107.21,235.293c14.51,3.888,22.683-7.419,22.683-7.419S128.469,214,113.958,210.108c-9.473-2.539-20.584,7.981-20.584,7.981S97.737,232.755,107.21,235.293Z" transform="translate(-6887 810)" fill="#6fe139"/>
    <path id="Контур_911" data-name="Контур 911" d="M228.874,221.1c-29.1,0-46.822,25.307-46.822,46.185h-.637c0-21.167,17.95-46.822,47.459-46.822Z" transform="translate(-6887 810)" fill="#2b7807" fill-rule="evenodd"/>
    <path id="Контур_912" data-name="Контур 912" d="M106.563,221.1c29.1,0,46.822,25.307,46.822,46.185h.637c0-21.167-17.95-46.822-47.459-46.822Z" transform="translate(-6887 810)" fill="#2b7807" fill-rule="evenodd"/>
    <path id="Контур_913" data-name="Контур 913" d="M167.4,264.1V180.015h.637V264.1Z" transform="translate(-6887 810)" fill="#2b7807" fill-rule="evenodd"/>
    <path id="Контур_914" data-name="Контур 914" d="M151.025,222.589c7.146,15.8,10.005,34.229,10.005,44.7h.637c0-10.551-2.875-29.071-10.062-44.963s-18.729-29.252-36.124-29.252v.637C132.487,193.711,143.873,206.776,151.025,222.589Z" transform="translate(-6887 810)" fill="#2b7807" fill-rule="evenodd"/>
    <path id="Контур_915" data-name="Контур 915" d="M184.412,222.589c-7.146,15.8-10.005,34.229-10.005,44.7h-.637c0-10.551,2.875-29.071,10.062-44.963s18.729-29.252,36.124-29.252v.637C202.95,193.711,191.564,206.776,184.412,222.589Z" transform="translate(-6887 810)" fill="#2b7807" fill-rule="evenodd"/>
    <path id="Контур_916" data-name="Контур 916" d="M121.7,291.226a25.48,25.48,0,0,1,25.134-29.67H188.6a25.48,25.48,0,0,1,25.134,29.67l-4.069,24.417A26.755,26.755,0,0,1,183.275,338H152.162a26.755,26.755,0,0,1-26.392-22.357Z" transform="translate(-6887 810)" fill="#dc9f43"/>
    <path id="Контур_917" data-name="Контур 917" d="M142.064,262c-5.412,3.84-12.128,14.559-4.064,33.62,11,26,16,36.5,32,38.5,4.6.575,3.1,2.07-1.591,3.944h-16.6a26.756,26.756,0,0,1-26.392-22.357l-4.069-24.417A25.491,25.491,0,0,1,142.064,262Z" transform="translate(-6887 810)" fill="#5f3b06" fill-rule="evenodd"/>
    <path id="Контур_918" data-name="Контур 918" d="M140.963,335.452h53.511V338H140.963Z" transform="translate(-6887 810)" fill="#b9802b"/>
    <path id="Контур_919" data-name="Контур 919" d="M140.963,260.281h53.511v2.549H140.963Z" transform="translate(-6887 810)" fill="#b9802b"/>
    <path id="Контур_920" data-name="Контур 920" d="M176.637,243.587a15.208,15.208,0,0,1-8.918,14.146,15.208,15.208,0,0,1-8.919-14.146c0-6.941,8.919-12.609,8.919-12.609S176.637,236.646,176.637,243.587Z" transform="translate(-6887 810)" fill="#6fe139"/>
    <path id="Контур_921" data-name="Контур 921" d="M208.581,243.172a15.208,15.208,0,0,1-.65,16.71,15.209,15.209,0,0,1-14.8-7.792c-3.47-6.011,1.419-15.379,1.419-15.379S205.111,237.161,208.581,243.172Z" transform="translate(-6887 810)" fill="#6fe139"/>
    <path id="Контур_922" data-name="Контур 922" d="M127.651,243.172a15.21,15.21,0,0,0,.65,16.71,15.209,15.209,0,0,0,14.8-7.792c3.471-6.011-1.419-15.379-1.419-15.379S131.121,237.161,127.651,243.172Z" transform="translate(-6887 810)" fill="#6fe139"/>
    <path id="Контур_923" data-name="Контур 923" d="M302,337c0,3.314-16.789,6-37.5,6s-37.5-2.686-37.5-6,16.789-6,37.5-6S302,333.686,302,337Z" transform="translate(-6887 810)" fill="#dfeed8"/>
    <path id="Контур_924" data-name="Контур 924" d="M37,176a8,8,0,0,1,8-8H77a8,8,0,0,1,8,8v32a8,8,0,0,1-8,8H45a8,8,0,0,1-8-8Z" transform="translate(-6887 810)" fill="#f1faed"/>
    <path id="Контур_925" data-name="Контур 925" d="M69,197.353a8.5,8.5,0,1,1-17,0C52,192.577,60.5,178,60.5,178S69,192.577,69,197.353Z" transform="translate(-6887 810)" fill="#18b0f1"/>
    <path id="Контур_926" data-name="Контур 926" d="M56,198.147a1.534,1.534,0,1,1-3,0c0-1.023,1.5-4.147,1.5-4.147S56,197.124,56,198.147Z" transform="translate(-6887 810)" fill="#fcfeff"/>
    <path id="Контур_927" data-name="Контур 927" d="M61.236,205.968A8.591,8.591,0,0,0,69,197.353c0-3.71-5.13-13.336-7.419-17.447C64.389,188.1,67.047,201.181,61.236,205.968Z" transform="translate(-6887 810)" fill="#86dbff" fill-rule="evenodd"/>
    <path id="Контур_928" data-name="Контур 928" d="M62.732,223a2,2,0,0,1-3.464,0l-5.2-9a2,2,0,0,1,1.732-3H66.2a2,2,0,0,1,1.732,3Z" transform="translate(-6887 810)" fill="#f1faed"/>
    <path id="Контур_929" data-name="Контур 929" d="M132,120a8,8,0,0,1,8-8h56a8,8,0,0,1,8,8v24a8,8,0,0,1-8,8H140a8,8,0,0,1-8-8Z" transform="translate(-6887 810)" fill="#f1faed"/>
    <path id="Контур_930" data-name="Контур 930" d="M169.732,159a2,2,0,0,1-3.464,0l-5.2-9a2,2,0,0,1,1.732-3H173.2a2,2,0,0,1,1.732,3Z" transform="translate(-6887 810)" fill="#f1faed"/>
    <path id="Контур_931" data-name="Контур 931" d="M156.059,132.361a4.952,4.952,0,0,1-.651,2.83,2.7,2.7,0,0,1-4.054.024,4.713,4.713,0,0,1-.68-2.707v-1.447a4.852,4.852,0,0,1,.65-2.795,2.75,2.75,0,0,1,4.067-.03,4.672,4.672,0,0,1,.668,2.719Zm-1.084-1.482a3.952,3.952,0,0,0-.387-2,1.33,1.33,0,0,0-1.225-.633,1.315,1.315,0,0,0-1.213.627,3.882,3.882,0,0,0-.392,1.928v1.734a4.085,4.085,0,0,0,.4,2.045,1.336,1.336,0,0,0,1.219.656,1.3,1.3,0,0,0,1.189-.621,3.862,3.862,0,0,0,.411-1.957Z" transform="translate(-6887 810)" fill="#18b0f1"/>
    <path id="Контур_932" data-name="Контур 932" d="M162.8,132.361a4.952,4.952,0,0,1-.651,2.83,2.7,2.7,0,0,1-4.054.024,4.721,4.721,0,0,1-.68-2.707v-1.447a4.852,4.852,0,0,1,.65-2.795,2.75,2.75,0,0,1,4.067-.03,4.672,4.672,0,0,1,.668,2.719Zm-1.084-1.482a3.952,3.952,0,0,0-.387-2,1.329,1.329,0,0,0-1.224-.633,1.313,1.313,0,0,0-1.213.627,3.88,3.88,0,0,0-.393,1.928v1.734a4.072,4.072,0,0,0,.4,2.045,1.334,1.334,0,0,0,1.218.656,1.3,1.3,0,0,0,1.19-.621,3.874,3.874,0,0,0,.41-1.957Z" transform="translate(-6887 810)" fill="#18b0f1"/>
    <path id="Контур_933" data-name="Контур 933" d="M167.238,135.432a.688.688,0,0,1,.164-.469.77.77,0,0,1,1.008,0,.66.66,0,0,1,.176.469.625.625,0,0,1-.176.451.668.668,0,0,1-1.172-.451Zm.006-5.174a.688.688,0,0,1,.164-.469.773.773,0,0,1,1.008,0,.659.659,0,0,1,.176.469.623.623,0,0,1-.176.451.789.789,0,0,1-1.008,0A.649.649,0,0,1,167.244,130.258Z" transform="translate(-6887 810)" fill="#18b0f1"/>
    <path id="Контур_934" data-name="Контур 934" d="M174.621,131.207h.815a1.8,1.8,0,0,0,1.207-.4,1.351,1.351,0,0,0,.439-1.061,1.323,1.323,0,0,0-1.494-1.5,1.559,1.559,0,0,0-1.125.4,1.4,1.4,0,0,0-.416,1.061h-1.084a2.173,2.173,0,0,1,.738-1.682,2.7,2.7,0,0,1,1.887-.673,2.665,2.665,0,0,1,1.892.638,2.305,2.305,0,0,1,.686,1.776,1.864,1.864,0,0,1-.363,1.078,2.167,2.167,0,0,1-.979.779,2.081,2.081,0,0,1,1.084.738,2.04,2.04,0,0,1,.387,1.26,2.326,2.326,0,0,1-.75,1.822,2.8,2.8,0,0,1-1.951.674,2.9,2.9,0,0,1-1.957-.65,2.162,2.162,0,0,1-.75-1.717h1.09a1.393,1.393,0,0,0,.439,1.078,1.67,1.67,0,0,0,1.178.4,1.638,1.638,0,0,0,1.2-.41,1.581,1.581,0,0,0,.416-1.177,1.433,1.433,0,0,0-.457-1.143,1.99,1.99,0,0,0-1.318-.41h-.815Z" transform="translate(-6887 810)" fill="#18b0f1"/>
    <path id="Контур_935" data-name="Контур 935" d="M185.373,136h-5.59v-.779l2.953-3.282a6.9,6.9,0,0,0,.9-1.207,2.013,2.013,0,0,0,.252-.966,1.529,1.529,0,0,0-.405-1.1,1.414,1.414,0,0,0-1.078-.428,1.678,1.678,0,0,0-1.26.463,1.758,1.758,0,0,0-.445,1.277h-1.084a2.52,2.52,0,0,1,.756-1.9,2.826,2.826,0,0,1,2.033-.726,2.7,2.7,0,0,1,1.881.627,2.118,2.118,0,0,1,.691,1.658,4.88,4.88,0,0,1-1.6,3l-2.285,2.478h4.283Z" transform="translate(-6887 810)" fill="#18b0f1"/>
    <path id="Контур_936" data-name="Контур 936" d="M243,274h62.653a8,8,0,0,1,7.9,9.235l-7.5,48a8,8,0,0,1-7.9,6.765H251a8,8,0,0,1-8-8Z" transform="translate(-6887 810)" fill="#3383b0"/>
    <path id="Контур_937" data-name="Контур 937" d="M294,286.184l28.948-23.592a2,2,0,0,1,1.264-.45H341.5a2,2,0,0,1,1.415,3.414l-34.77,34.77Z" transform="translate(-6887 810)" fill="#3383b0"/>
    <path id="Контур_938" data-name="Контур 938" d="M253,276H231a6,6,0,0,0-6,6v16a6,6,0,0,0,6,6h22Zm-22-2a8,8,0,0,0-8,8v16a8,8,0,0,0,8,8h24V274Z" transform="translate(-6887 810)" fill="#3383b0" fill-rule="evenodd"/>
    <path id="Контур_939" data-name="Контур 939" d="M310.538,302.556l-4.481,28.679a8,8,0,0,1-7.9,6.765H251a8,8,0,0,1-8-8V308c3.167-2.333,13.2-5.6,26,0,8.694,3.8,18.569.226,26.9-2.792C301.938,303.019,307.165,301.126,310.538,302.556Z" transform="translate(-6887 810)" fill="#86dbff" fill-rule="evenodd"/>
    <path id="Контур_940" data-name="Контур 940" d="M299,309.5,311.5,297l-5,30.5Z" transform="translate(-6887 810)" fill="#0c364e"/>
    <path id="Контур_941" data-name="Контур 941" d="M306.353,302.147,299,309.5l7.5,18,3-18.3,1.038-6.645A8.261,8.261,0,0,0,306.353,302.147Z" transform="translate(-6887 810)" fill="#61c2f9" fill-rule="evenodd"/>
    <path id="Контур_942" data-name="Контур 942" d="M249,272a2,2,0,0,1,2-2h54a2,2,0,0,1,2,2v2H249Z" transform="translate(-6887 810)" fill="#0c364e"/>
    <path id="Контур_943" data-name="Контур 943" d="M273,270a4,4,0,0,1,4-4h1a4,4,0,0,1,4,4h-9Z" transform="translate(-6887 810)" fill="#0c364e"/>
    <path id="Контур_944" data-name="Контур 944" d="M275,144h60v8H275Z" transform="translate(-6887 810)" fill="#f37e64"/>
    <path id="Контур_945" data-name="Контур 945" d="M275,152h60v50H275Z" transform="translate(-6887 810)" fill="#e5e5e5"/>
    <path id="Контур_946" data-name="Контур 946" d="M275,152h60c0,20,0,50-10,50H265C270.5,202,275,186,275,152Z" transform="translate(-6887 810)" fill="#f1faed"/>
    <path id="Контур_947" data-name="Контур 947" d="M318,177.5c0,8.56-8.94,15.5-17.5,15.5S287,186.06,287,177.5s8.94-15.5,17.5-15.5S318,168.94,318,177.5Z" transform="translate(-6887 810)" fill="#92ea68"/>
    <path id="Контур_948" data-name="Контур 948" d="M302.779,184.042l-1.863-.32a30.9,30.9,0,0,0,1.549-10l-2.911.467.272-1.579,4.65-.856.239.041A36.419,36.419,0,0,1,302.779,184.042Z" transform="translate(-6887 810)" fill="#fff"/>
  </g>
</svg>
