<svg xmlns="http://www.w3.org/2000/svg" width="375.001" height="373.894" viewBox="0 0 375.001 373.894">
  <path id="Вычитание_7" data-name="Вычитание 7" d="M5371.31-17.107c-45.565,0-81.044-3.926-111.655-12.356-7.947-2.189-15.729-4.739-23.129-7.579a231.767,231.767,0,0,1-21.793-9.677,233.852,233.852,0,0,1-20.746-11.926c-6.712-4.328-13.437-9.147-19.987-14.325V-325.6a85.591,85.591,0,0,0,8.294,8.016,70.29,70.29,0,0,0,11.684,7.96,68.966,68.966,0,0,0,15.639,6.1,81.243,81.243,0,0,0,20.159,2.433c2.608,0,5.3-.111,8.01-.33a86.936,86.936,0,0,0,14.524-2.5,139.207,139.207,0,0,0,14.778-4.729c9.964-3.752,20.083-8.515,30.794-13.557,14.111-6.642,28.7-13.511,44.477-18.786a179.892,179.892,0,0,1,24.5-6.429,145.436,145.436,0,0,1,26.375-2.473,140.1,140.1,0,0,1,28.395,2.942c29.335,6.087,51.119,13.485,68.622,19.43,16.979,5.767,29.243,9.933,39.723,9.933a30.116,30.116,0,0,0,19.021-6.36V-28.817c-6.746,1.025-13.84,1.877-21.084,2.532-34.252,3.1-61.279,5.218-85.054,6.68C5415.539-17.925,5392.133-17.108,5371.31-17.107Z" transform="translate(-5174 391.001)" fill="#fff" opacity="0.998"/>
</svg>
