<svg xmlns="http://www.w3.org/2000/svg" width="79.233" height="102.499" viewBox="0 0 79.233 102.499">
  <g id="pot_icon" transform="translate(-12)">
    <path id="Контур_697" data-name="Контур 697" d="M26,35c-1.6-.4-5.667,1.5-7.5,2.5H82V36a14.236,14.236,0,0,0-3.5-1c-1,0-2-1-3-1S72,35,70,35s-4-2-5.5-2H58c-2,0-6.5,0-10.5-2-3.2-1.6-8,.667-10,2A39.145,39.145,0,0,0,32,35C30,36,28,35.5,26,35Z" transform="translate(1.5)" fill="#dcdcdc"/>
    <path id="Контур_698" data-name="Контур 698" d="M79.233,96.161c0,3.5-17.737,6.338-39.617,6.338S0,99.662,0,96.161s17.737-6.339,39.617-6.339S79.233,92.66,79.233,96.161Z" transform="translate(12)" fill="#d1d1d1"/>
    <path id="Контур_699" data-name="Контур 699" d="M16.4,39.113H86.123L78.376,95.1H24.145Z" transform="translate(0.602)" fill="#d2d8cf"/>
    <path id="Контур_700" data-name="Контур 700" d="M78.705,96.689c-39.347-4.879-57-17.96-49.653-58.633H15.847L24.3,96.689Z" fill="#bdc1bb"/>
    <path id="Контур_701" data-name="Контур 701" d="M24,95H79v3H24Z" transform="translate(0)" fill="#a4a4a4"/>
    <path id="Контур_702" data-name="Контур 702" d="M14,40a3,3,0,0,1,3-3H85a3,3,0,0,1,3,3v8a3,3,0,0,1-3,3H17a3,3,0,0,1-3-3Z" transform="translate(1)" fill="#bdc1bb"/>
    <path id="Контур_703" data-name="Контур 703" d="M27.885,51a97.342,97.342,0,0,1,1.526-14H17a3,3,0,0,0-3,3v8a3,3,0,0,0,3,3Z" fill="#9e9e9e" fill-rule="evenodd"/>
    <path id="Контур_704" data-name="Контур 704" d="M56.714,11.059a4.858,4.858,0,1,1-9.714,0C47,8.33,51.857,0,51.857,0S56.714,8.33,56.714,11.059Z" transform="translate(0)" fill="#18b0f1"/>
    <path id="Контур_705" data-name="Контур 705" d="M52.278,15.982a4.909,4.909,0,0,0,4.437-4.923c0-2.12-2.931-7.62-4.24-9.969C54.079,5.769,55.6,13.246,52.278,15.982Z" fill="#86dbff" fill-rule="evenodd"/>
  </g>
</svg>
